<svg xmlns="http://www.w3.org/2000/svg" xmlns:xlink="http://www.w3.org/1999/xlink" version="1.1" x="0px" y="0px" viewBox="0 0 100 100" style="enable-background:new 0 0 100 100;" xml:space="preserve">
    <g fill="currentColor">
        <path d="M85.1,90.4H13.5c-5.9,0-6.3-5.2-6.5-8.3c0-0.3,0-0.7-0.1-1c-0.4-4.2,9.5-9.6,11.4-10.4c0.8-0.4,2.1-1,3.8-1.8   c4.5-2.2,12.9-6.2,14-7.2c0.1-0.1,0.2-0.2,0.2-0.4c0-0.9-1.3-2.7-3-4.2c-2-2-5.6-8.1-7.3-19.2c-2-13.1,3.3-20.7,8.1-24.8   C40.6,7.7,49,7.7,49.3,7.7c0.4,0,8.8,0.1,15.6,5.5c6.9,5.3,9.7,14.1,8.1,24.8c-1.7,11.1-5.3,17.3-7.2,19.2c-2.1,2.1-3.1,3.8-3,4.5   c0,0.1,0,0.1,0.1,0.1c1.3,0.9,10.2,5.3,15,7.6c1.3,0.6,2.3,1.1,3,1.5c0.1,0.1,11.2,5.8,10.8,10.4c0,0.3,0,0.6-0.1,1   C91.4,85.3,91,90.4,85.1,90.4z M49.3,9.7c-0.1,0-8,0.1-13.8,5c-6.3,5.4-8.9,13.3-7.4,23c1.6,10.6,5,16.4,6.7,18   c0.6,0.5,3.6,3.2,3.6,5.6c0,0.8-0.3,1.4-0.9,1.9c-1.3,1-7.6,4.1-14.5,7.5c-1.6,0.8-3,1.4-3.8,1.8C15.1,74.4,8.8,79.1,9,81   C9,81.3,9,81.7,9,82c0.3,3.7,0.7,6.4,4.5,6.4h71.6c3.8,0,4.2-2.7,4.5-6.4c0-0.4,0-0.7,0.1-1c0.2-2.1-5.6-6.4-9.7-8.5   c-0.7-0.3-1.7-0.8-2.9-1.5c-7-3.5-13.9-6.9-15.2-7.8c-0.6-0.4-0.9-0.9-0.9-1.6c-0.2-2,2.2-4.6,3.6-6.1c1.6-1.6,5.1-7.4,6.7-18 c1.5-9.9-1.1-18.1-7.4-22.9C57.4,9.7,49.4,9.7,49.3,9.7z"/>
    </g>
</svg>
